<svg viewBox="0 0 256 256" xmlns="http://www.w3.org/2000/svg">
    <defs>
        <linearGradient id="motionGradient" x1="0%" y1="0%" x2="100%" y2="0%">
            <stop offset="0%" style="stop-color:white;stop-opacity:0" />
            <stop offset="60%" style="stop-color:white;stop-opacity:0.5" />
            <stop offset="80%" style="stop-color:white;stop-opacity:0.5" />
            <stop offset="100%" style="stop-color:white;stop-opacity:0.2" />
        </linearGradient>
    </defs>

    <!-- Background circle -->
    <circle cx="128" cy="128" r="110" fill="#63623a" stroke="white" stroke-width="3" />
    <circle cx="128" cy="128" r="10" fill="white" />

    <!-- Minute hand -->
    <line x1="128" y1="128" x2="158" y2="48" stroke="white" stroke-width="4" stroke-linecap="round" />

    <!-- Hour hand -->
    <line x1="128" y1="128" x2="183" y2="132" stroke="white" stroke-width="4" stroke-linecap="round" />

    <line x1="128" y1="18" x2="128" y2="33" stroke="white" stroke-width="2" stroke-linecap="round" />
    <line x1="183" y1="32.7" x2="175.5" y2="45.7" stroke="white" stroke-width="2"
        stroke-linecap="round" />
    <line x1="223.3" y1="73" x2="210.3" y2="80.5" stroke="white" stroke-width="2"
        stroke-linecap="round" />
    <line x1="238" y1="128" x2="223" y2="128" stroke="white" stroke-width="2" stroke-linecap="round" />
    <line x1="223.3" y1="183" x2="210.3" y2="175.5" stroke="white" stroke-width="2"
        stroke-linecap="round" />
    <line x1="183" y1="223.3" x2="175.5" y2="210.3" stroke="white" stroke-width="2"
        stroke-linecap="round" />
    <line x1="128" y1="238" x2="128" y2="223" stroke="white" stroke-width="2" stroke-linecap="round" />
    <line x1="73" y1="223.3" x2="80.5" y2="210.3" stroke="white" stroke-width="2"
        stroke-linecap="round" />
    <line x1="32.7" y1="183" x2="45.7" y2="175.5" stroke="white" stroke-width="2"
        stroke-linecap="round" />
    <line x1="18" y1="128" x2="33" y2="128" stroke="white" stroke-width="2" stroke-linecap="round" />
    <line x1="32.7" y1="73" x2="45.7" y2="80.5" stroke="white" stroke-width="2"
        stroke-linecap="round" />
    <line x1="73" y1="32.7" x2="80.5" y2="45.7" stroke="white" stroke-width="2"
        stroke-linecap="round" />

    <path
        d="M 48 128 A 80 80 0 0 1 149.5 50.9"
        stroke="url(#motionGradient)"
        stroke-width="8"
        stroke-linecap="round"
        fill="none"
    />

    <path
        d="M 83 128 A 45 45 0 0 1 137.1 83.9"
        stroke="url(#motionGradient)"
        stroke-width="7"
        stroke-linecap="round"
        fill="none"
    />
</svg>